# xmcd
#
# Track frame offsets: 
#        150
#        14465
#        28151
#        42284
#        58995
#        76984
#        93468
#        107544
#        125690
#        143655
#        160653
#        175268
#        192314
#
# Disc length: 2864 seconds
#
# Revision: 0
# Processed by: cddbd v1.5.2PL0 Copyright (c) Steve Scherf et al.
# Submitted via: ExactAudioCopy v1.0b1
#
DISCID=ac0b2e0d
DTITLE=Joe Nichols - Real Things
DYEAR=2007
DGENRE=Country
TTITLE0=Real Things
TTITLE1=Another Side Of You
TTITLE2=Who Are You When I'm Not Looki
TTITLE3=Comin' Back In A Cadillac
TTITLE4=My Whiskey Years
TTITLE5=It Ain't No Crime
TTITLE6=All Good Things
TTITLE7=Let's Get Drunk and Fight
TTITLE8=Ain't Nobody Gonna Take That From Me
TTITLE9=She's All Lady
TTITLE10=The Difference is Night and Day
TTITLE11=All I Need is a Heart
TTITLE12=If I Could Only Fly
EXTD=
EXTT0=
EXTT1=
EXTT2=
EXTT3=
EXTT4=
EXTT5=
EXTT6=
EXTT7=
EXTT8=
EXTT9=
EXTT10=
EXTT11=
EXTT12=
PLAYORDER=
